# xmcd
#
# Track frame offsets:
#	150
#	14300
#	27836
#	44170
#	61298
#	81860
#	98348
#	115680
#	130779
#	145520
#	165834
#	184482
#	209361
#	228135
#	248465
#	266896
#	278185
#	292068
#	317482
#
# Disc length: 4462 seconds
#
# Revision: 0
# Processed by: cddbd v1.4PL0 Copyright (c) Steve Scherf et al.
# Submitted via: dBpowerAMP V4.0
#
DISCID=01116c13
DTITLE=Various Artist - Oasis Blues Volume6 Disk1
DYEAR=2003
DGENRE=Blues
TTITLE0=All Night Long - Big Joe and the Dynaflows
TTITLE1=Express Train - Mark Muddyharp Hodgson
TTITLE2=Palmyra Stomp - Mike Morgan and the Crawl
TTITLE3=Lord Uncle Jim Hates Flies - Lunchboxx
TTITLE4=Good Day For The Blues - Bucky Lindsey
TTITLE5=Words Of Caution - Lou Pride
TTITLE6=Tell Me Whats Going On - Sugar Ray and the Bluetones feat Monster Mike Welch
TTITLE7=Rockin Sugar Daddy - Sugar Ray and the Bluetones
TTITLE8=What's Your Name - Mighty Sam McClain
TTITLE9=I Got My Tune - Up In The Atic - Sunny Girl
TTITLE10=One Scotch, One Bourbon, One Beer - Ruby Hayes
TTITLE11=Dirty Mother-Under Cover Lover - 2nd Story Band
TTITLE12=Bill Showed Up - Jeremy Baum
TTITLE13=Give Me One Reason - Julia Nixon
TTITLE14=Thirteen Below Zero - Pat Smillie Band
TTITLE15=Everthing's Cheaper - Dr Steve Kraemer and the Bluesicians
TTITLE16=Blue Barnyard - Ed MGuirl
TTITLE17=Its Always Darkest Before The Dawn - Bruce Conte
TTITLE18=Damian Nighstar - Jen Ambrose
EXTD=
EXTT0=
EXTT1=
EXTT2=
EXTT3=
EXTT4=
EXTT5=
EXTT6=
EXTT7=
EXTT8=
EXTT9=
EXTT10=
EXTT11=
EXTT12=
EXTT13=
EXTT14=
EXTT15=
EXTT16=
EXTT17=
EXTT18=
PLAYORDER=
